<?xml version="1.0" standalone="no"?>
<!DOCTYPE svg PUBLIC "-//W3C//DTD SVG 20010904//EN"
 "http://www.w3.org/TR/2001/REC-SVG-20010904/DTD/svg10.dtd">
<svg version="1.0" xmlns="http://www.w3.org/2000/svg"
 width="750.000000pt" height="315.000000pt" viewBox="0 0 750.000000 315.000000"
 preserveAspectRatio="xMidYMid meet">

<g transform="translate(0.000000,315.000000) scale(0.100000,-0.100000)"
fill="#000000" stroke="none">
<path d="M2810 2841 l0 -311 280 0 280 0 0 130 0 130 118 0 c242 -1 344 -32
441 -135 98 -104 131 -212 131 -433 0 -97 -4 -135 -21 -184 -39 -117 -135
-235 -228 -282 -49 -25 -149 -41 -333 -52 l-108 -6 0 136 0 136 -280 0 -280 0
0 -315 0 -315 148 0 c372 1 949 20 1013 34 159 34 308 115 419 225 176 175
250 400 237 721 -6 150 -29 255 -77 357 -83 179 -224 314 -411 395 -155 66
-188 69 -791 75 l-538 5 0 -311z"/>
<path d="M0 384 l0 -386 223 4 c258 5 288 13 369 99 72 77 91 138 91 284 0
141 -19 205 -82 277 -78 88 -155 108 -423 108 l-178 0 0 -386z m385 235 c57
-16 110 -74 125 -139 19 -78 9 -197 -21 -250 -42 -75 -63 -84 -200 -89 l-119
-3 0 246 0 246 88 0 c48 0 105 -5 127 -11z"/>
<path d="M820 386 l0 -386 85 0 84 0 3 148 3 147 71 3 72 3 81 -133 c45 -73
84 -138 89 -145 11 -17 172 -29 172 -13 0 7 -36 72 -80 144 -44 72 -80 137
-80 145 0 7 23 34 52 59 65 59 88 108 88 192 0 91 -36 155 -105 190 -47 23
-59 24 -292 28 l-243 4 0 -386z m414 249 c41 -19 66 -62 66 -112 -1 -80 -46
-102 -217 -103 l-93 0 0 115 0 115 106 0 c74 0 116 -5 138 -15z"/>
<path d="M1664 756 c-3 -7 -4 -33 -2 -57 3 -41 5 -44 32 -44 34 0 62 33 72 83
l7 32 -52 0 c-35 0 -53 -5 -57 -14z"/>
<path d="M1892 761 c-33 -6 -35 -10 -83 -136 -199 -520 -230 -608 -217 -617 7
-4 44 -7 82 -6 l69 3 27 80 27 80 154 0 154 0 26 -80 25 -80 88 -3 c71 -2 87
0 84 11 -2 8 -66 181 -143 386 l-140 371 -60 -1 c-33 -1 -75 -4 -93 -8z m76
-213 c7 -18 29 -80 48 -137 29 -84 33 -105 22 -112 -17 -11 -159 -11 -176 -1
-10 7 -2 40 35 145 26 75 50 137 53 137 3 0 11 -15 18 -32z"/>
<path d="M2130 766 c0 -2 10 -30 22 -61 l21 -56 41 3 41 3 3 58 3 57 -66 0
c-36 0 -65 -2 -65 -4z"/>
<path d="M2450 764 c0 -3 51 -80 113 -172 63 -92 117 -172 120 -178 3 -6 -52
-98 -123 -204 -91 -137 -126 -196 -117 -202 7 -4 46 -8 88 -8 l76 0 78 120
c42 66 81 122 86 126 16 10 36 -13 111 -132 l71 -114 81 0 c45 0 87 4 94 8 9
6 -19 57 -108 192 -66 101 -120 191 -120 200 0 14 84 151 203 331 9 14 14 29
10 32 -3 4 -42 7 -85 7 l-78 0 -76 -117 c-42 -65 -78 -120 -80 -122 -6 -6 -24
20 -94 137 l-62 102 -94 0 c-52 0 -94 -2 -94 -6z"/>
<path d="M3262 388 l3 -383 273 -3 272 -2 0 70 0 70 -190 0 -190 0 0 315 0
315 -85 0 -85 0 2 -382z"/>
<path d="M3950 385 l0 -385 75 0 75 0 1 238 c1 130 4 248 8 262 8 28 11 21
134 -329 l61 -173 65 6 c36 4 69 10 72 14 3 4 41 106 84 227 43 121 85 236 94
255 l16 35 6 -90 c4 -49 7 -170 8 -267 l1 -178 75 0 75 0 0 385 0 385 -64 0
c-34 0 -91 -3 -124 -6 l-61 -7 -76 -227 c-42 -125 -82 -235 -89 -245 -13 -18
-14 -17 -29 6 -8 13 -50 126 -92 252 l-78 227 -118 0 -119 0 0 -385z"/>
<path d="M5221 761 l-34 -6 -139 -364 c-76 -201 -136 -371 -134 -378 4 -9 28
-13 80 -13 l74 0 28 80 27 80 99 2 c54 1 123 2 155 3 l56 0 27 -80 27 -80 88
-3 c68 -2 86 0 83 10 -115 313 -275 727 -286 741 -16 18 -78 21 -151 8z m115
-322 c20 -64 34 -124 31 -133 -6 -14 -20 -16 -94 -14 l-88 3 2 29 c2 28 49
157 80 220 8 15 18 24 23 20 4 -5 25 -61 46 -125z"/>
<path d="M5770 385 l0 -385 85 0 85 0 0 385 0 385 -85 0 -85 0 0 -385z"/>
<path d="M6090 385 l0 -385 306 0 306 0 -6 23 c-3 12 -6 41 -6 65 l0 42 -108
0 c-60 0 -157 3 -215 7 l-107 6 0 94 0 93 195 0 195 0 0 59 0 58 -92 7 c-50 3
-138 6 -195 6 l-103 0 0 69 c0 38 -3 76 -6 85 -5 14 17 16 210 16 l216 0 0 70
0 70 -295 0 -295 0 0 -385z"/>
<path d="M6850 386 l0 -386 80 0 80 0 0 150 0 150 68 0 c53 0 72 -4 84 -17 8
-10 51 -78 94 -150 l79 -133 70 0 c38 0 76 4 83 8 9 6 -4 36 -54 118 -105 173
-118 204 -89 204 24 0 92 68 114 114 52 106 6 245 -100 303 -30 16 -63 18
-271 21 l-238 3 0 -385z m429 236 c33 -24 46 -76 31 -124 -18 -61 -44 -71
-178 -72 l-117 -1 -3 114 -3 114 123 -6 c97 -5 127 -10 147 -25z"/>
</g>
</svg>
